<svg xmlns="http://www.w3.org/2000/svg" xmlns:xlink="http://www.w3.org/1999/xlink" viewBox="0 0 226.65 237.52"><defs><style>.cls-1{fill:none;}.cls-2{clip-path:url(#clip-path);}.cls-3{fill:#334398;}.cls-4{fill:#4459b2;}.cls-5{fill:#1183b9;}.cls-6{fill:#20a1d3;}.cls-7{fill:#22bacf;}.cls-8{fill:#4be4ef;}.cls-9{fill:#6e368d;}.cls-10{fill:#b12db5;}.cls-11{fill:#ce2e86;}.cls-12{fill:#e54ca7;}.cls-13{fill:#f24493;}.cls-14{fill:#e92f7a;}.cls-15{fill:#ef351d;}.cls-16{fill:#d3190b;}.cls-17{fill:#ff9d27;}.cls-18{fill:#ef840f;}.cls-19{fill:#ffc545;}</style><clipPath id="clip-path" transform="translate(25.15 134.15)"><path class="cls-1" d="M193,50H0V0H193Z"/></clipPath></defs><g id="Layer_2" data-name="Layer 2"><g id="Layer_7" data-name="Layer 7"><g class="cls-2"><polygon class="cls-3" points="196.6 84.96 203.6 57.8 179.53 17 172.53 44.16 196.6 84.96"/><polygon class="cls-4" points="179.53 17 169.5 0 152.42 10.08 172.53 44.16 179.53 17"/><polygon class="cls-5" points="189.66 111.89 196.66 84.72 175.02 48.04 168.01 75.21 189.66 111.89"/><polygon class="cls-5" points="219.65 162.72 226.65 135.55 205.01 98.87 198.01 126.04 219.65 162.72"/><polygon class="cls-6" points="162.06 26.07 152.57 9.99 135.48 20.07 155.05 53.24 162.06 26.07"/><polygon class="cls-7" points="208.82 183.06 215.83 155.9 205.76 138.85 198.76 166.01 208.82 183.06"/><polygon class="cls-8" points="143.79 72.85 181.05 136 191.11 153.05 198.12 125.89 188.06 108.84 150.79 45.68 143.79 72.85"/><polygon class="cls-7" points="138.19 24.32 135.63 19.98 118.55 30.07 131.19 51.49 138.19 24.32"/><polygon class="cls-9" points="101.61 40.06 175.77 165.74 182.77 138.58 118.7 29.98 101.61 40.06"/><polygon class="cls-10" points="115.59 102.45 122.6 75.28 107.48 49.65 100.47 76.82 115.59 102.45"/><polygon class="cls-10" points="147.45 156.45 154.46 129.28 126.92 82.6 119.91 109.77 147.45 156.45"/><polygon class="cls-11" points="168.32 230.51 195.49 237.52 181.31 213.49 154.15 206.49 168.32 230.51"/><polygon class="cls-12" points="140.27 143.93 84.83 49.96 67.74 60.04 113.11 136.93 140.27 143.93"/><polygon class="cls-11" points="148.68 197.23 175.85 204.23 154.45 167.96 127.28 160.95 148.68 197.23"/><polygon class="cls-13" points="55.47 67.28 75.22 72.38 67.89 59.95 55.47 67.28"/><polygon class="cls-14" points="50.81 70.03 59.89 85.44 87.06 92.44 75.22 72.38 55.47 67.28 50.81 70.03"/><polygon class="cls-13" points="109.21 129.98 87.06 92.44 59.89 85.44 82.04 122.97 109.21 129.98"/><polygon class="cls-14" points="125.63 157.81 109.21 129.98 82.04 122.97 98.46 150.8 125.63 157.81"/><polygon class="cls-15" points="33.87 80.03 49 105.67 76.17 112.68 50.97 69.96 50.94 69.96 33.87 80.03"/><polygon class="cls-16" points="100.99 154.75 76.17 112.68 49 105.67 73.83 147.74 100.99 154.75"/><polygon class="cls-15" points="115.88 179.99 100.99 154.75 73.83 147.74 88.72 172.99 115.88 179.99"/><polygon class="cls-15" points="131.16 205.88 115.88 179.99 88.72 172.99 103.99 198.87 131.16 205.88"/><polygon class="cls-17" points="148.09 234.57 131.16 205.88 103.99 198.87 120.92 227.57 148.09 234.57"/><polygon class="cls-17" points="16.94 90.02 18.26 92.26 45.42 99.26 34.02 79.94 16.94 90.02"/><polygon class="cls-17" points="55.35 116.09 28.19 109.09 45.75 138.86 72.92 145.86 55.35 116.09"/><polygon class="cls-18" points="86.28 168.51 72.92 145.86 45.75 138.86 59.12 161.51 86.28 168.51"/><polygon class="cls-19" points="114.03 215.54 101.18 193.76 74.01 186.75 86.86 208.54 114.03 215.54"/><polygon class="cls-19" points="0 100.01 17.87 130.3 45.04 137.3 17.09 89.93 0 100.01"/><polygon class="cls-19" points="52.48 149.92 25.32 142.92 35.5 160.18 62.66 167.18 52.48 149.92"/></g></g></g></svg>