<svg xmlns="http://www.w3.org/2000/svg" viewBox="0 0 27.27 48.04"><defs><style>.cls-1{fill:#6f6f6f;}</style></defs><g id="Layer_2" data-name="Layer 2"><g id="Layer_7" data-name="Layer 7"><path class="cls-1" d="M16.84,48H9.15a2.33,2.33,0,0,1-2.33-2.33V28.36H2.33A2.34,2.34,0,0,1,0,26V18.59a2.34,2.34,0,0,1,2.33-2.33H6.82V12.54a12.68,12.68,0,0,1,3.35-9.08A12,12,0,0,1,19.07,0h5.87a2.33,2.33,0,0,1,2.33,2.33v6.9a2.33,2.33,0,0,1-2.33,2.33H21c-1.21,0-1.51.24-1.58.31s-.24.47-.24,1.43v2.94h5.47a2.43,2.43,0,0,1,1.16.29,2.37,2.37,0,0,1,1.19,2V26a2.33,2.33,0,0,1-2.33,2.33H19.17V45.71A2.33,2.33,0,0,1,16.84,48Zm-7.2-2.81h6.72V27.1a1.56,1.56,0,0,1,1.55-1.56h6.26V19.08H17.91a1.56,1.56,0,0,1-1.55-1.56v-4.2A4.79,4.79,0,0,1,17.3,10,4.76,4.76,0,0,1,21,8.76h3.46V2.83H19.07c-5.82,0-9.43,3.72-9.43,9.72v5a1.56,1.56,0,0,1-1.56,1.56H2.82v6.46H8.08A1.56,1.56,0,0,1,9.64,27.1Zm15.3-42.4Z"/></g></g></svg>