<svg xmlns="http://www.w3.org/2000/svg" xmlns:xlink="http://www.w3.org/1999/xlink" viewBox="0 0 47.73 48"><defs><style>.cls-1{fill:none;}.cls-2{fill:#6f6f6f;}.cls-3{clip-path:url(#clip-path);}.cls-4{fill:#fae100;}.cls-5{clip-path:url(#clip-path-2);}.cls-6{clip-path:url(#clip-path-4);}.cls-7{clip-path:url(#clip-path-6);}.cls-8{clip-path:url(#clip-path-8);}</style><clipPath id="clip-path" transform="translate(0 0)"><rect class="cls-1" width="47.73" height="48"/></clipPath><clipPath id="clip-path-2" transform="translate(0 0)"><path class="cls-2" d="M11.74,20.11H13.5s0,4.85,0,6c0,.83,1.83.84,1.83,0V20.17h1.76a.87.87,0,0,0,0-1.73l-5.37,0a.85.85,0,0,0,0,1.7"/></clipPath><clipPath id="clip-path-4" transform="translate(0 0)"><path class="cls-2" d="M20.19,20.42l1,3.08H19.13ZM19.09,19c-.43,1-2,5.48-2.52,6.68-.38.87,1.24,1.57,1.62.71l.36-1.24h3.23s-.11.05.32,1.18c.34.92,2,.28,1.68-.63-.5-1.31-2.22-6-2.53-6.7a1.34,1.34,0,0,0-1.17-.53,1,1,0,0,0-1,.53"/></clipPath><clipPath id="clip-path-6" transform="translate(0 0)"><path class="cls-2" d="M24.39,19.26c0,1.54,0,6.49,0,6.49s-.14,1,.71,1h3.54c.83,0,.83-1.77,0-1.77H26.3s0-4.58,0-5.69a1,1,0,0,0-1.92,0"/></clipPath><clipPath id="clip-path-8" transform="translate(0 0)"><path class="cls-2" d="M29.7,19c0,.67,0,6.77,0,7.22,0,.71,1.82.71,1.82,0v-2.4l.53-.43,2.33,3.18c.47.62,2-.5,1.48-1.12l-2.47-3.26s1.68-1.82,2.34-2.47c.38-.39-.81-1.59-1.2-1.21l-3,3s0-1.66,0-2.57c0-.35-.44-.52-.87-.52s-.95.2-.94.57"/></clipPath></defs><g id="Layer_2" data-name="Layer 2"><g id="Layer_7" data-name="Layer 7"><g class="cls-3"><path class="cls-2" d="M37.11,0H10.62A10.65,10.65,0,0,0,0,10.68V37.32A10.65,10.65,0,0,0,10.62,48H37.11A10.65,10.65,0,0,0,47.73,37.32V10.68A10.65,10.65,0,0,0,37.11,0ZM23.71,36.18a20.69,20.69,0,0,1-3.18-.24l-6.61,4.49c-.38.25-.95.26-.72-.67.19-.75,1.13-4.27,1.49-5.61C9.8,31.76,6.55,27.49,6.55,22.61,6.55,15.11,14.23,9,23.71,9s17.17,6.07,17.17,13.57S33.19,36.18,23.71,36.18Z" transform="translate(0 0)"/><path class="cls-4" d="M11.74,20.11H13.5s0,4.85,0,6c0,.83,1.83.84,1.83,0V20.17h1.76a.87.87,0,0,0,0-1.73l-5.37,0a.85.85,0,0,0,0,1.7" transform="translate(0 0)"/></g><path class="cls-2" d="M11.74,20.11H13.5s0,4.85,0,6c0,.83,1.83.84,1.83,0V20.17h1.76a.87.87,0,0,0,0-1.73l-5.37,0a.85.85,0,0,0,0,1.7" transform="translate(0 0)"/><g class="cls-5"><rect class="cls-2" x="10.7" y="18.41" width="7.51" height="8.51"/></g><g class="cls-3"><path class="cls-4" d="M20.19,20.42l1,3.08H19.13ZM19.09,19c-.43,1-2,5.48-2.52,6.68-.38.87,1.24,1.57,1.62.71l.36-1.24h3.23s-.11.05.32,1.18c.34.92,2,.28,1.68-.63-.5-1.31-2.22-6-2.53-6.7a1.34,1.34,0,0,0-1.17-.53,1,1,0,0,0-1,.53" transform="translate(0 0)"/></g><path class="cls-2" d="M20.19,20.42l1,3.08H19.13ZM19.09,19c-.43,1-2,5.48-2.52,6.68-.38.87,1.24,1.57,1.62.71l.36-1.24h3.23s-.11.05.32,1.18c.34.92,2,.28,1.68-.63-.5-1.31-2.22-6-2.53-6.7a1.34,1.34,0,0,0-1.17-.53,1,1,0,0,0-1,.53" transform="translate(0 0)"/><g class="cls-6"><rect class="cls-2" x="16.19" y="18.45" width="7.93" height="8.78"/></g><g class="cls-3"><path class="cls-4" d="M24.39,19.26c0,1.54,0,6.49,0,6.49s-.14,1,.7,1h3.55c.83,0,.83-1.77,0-1.77H26.3s0-4.58,0-5.69a1,1,0,0,0-1.92,0" transform="translate(0 0)"/></g><path class="cls-2" d="M24.39,19.26c0,1.54,0,6.49,0,6.49s-.14,1,.71,1h3.54c.83,0,.83-1.77,0-1.77H26.3s0-4.58,0-5.69a1,1,0,0,0-1.92,0" transform="translate(0 0)"/><g class="cls-7"><rect class="cls-2" x="24.26" y="18.45" width="5.22" height="8.29"/></g><g class="cls-3"><path class="cls-4" d="M29.7,19c0,.67,0,6.77,0,7.22,0,.71,1.82.71,1.82,0v-2.4l.53-.43,2.33,3.18c.47.62,2-.5,1.48-1.12l-2.47-3.26s1.68-1.82,2.34-2.47c.38-.39-.81-1.59-1.2-1.21l-3,3s0-1.66,0-2.57c0-.35-.44-.52-.87-.52s-.95.2-.94.57" transform="translate(0 0)"/></g><path class="cls-2" d="M29.7,19c0,.67,0,6.77,0,7.22,0,.71,1.82.71,1.82,0v-2.4l.53-.43,2.33,3.18c.47.62,2-.5,1.48-1.12l-2.47-3.26s1.68-1.82,2.34-2.47c.38-.39-.81-1.59-1.2-1.21l-3,3s0-1.66,0-2.57c0-.35-.44-.52-.87-.52s-.95.2-.94.57" transform="translate(0 0)"/><g class="cls-8"><rect class="cls-2" x="29.68" y="18.15" width="6.63" height="9.06"/></g></g></g></svg>