<svg xmlns="http://www.w3.org/2000/svg" viewBox="0 0 48.04 39.04"><defs><style>.cls-1{fill:#6f6f6f;}</style></defs><g id="Layer_2" data-name="Layer 2"><g id="Layer_7" data-name="Layer 7"><path class="cls-1" d="M48,4.62a20.89,20.89,0,0,1-5.67,1.56A9.8,9.8,0,0,0,46.7.73a19.57,19.57,0,0,1-6.24,2.39,9.85,9.85,0,0,0-17,6.73,9.76,9.76,0,0,0,.23,2.25A27.89,27.89,0,0,1,3.35,1.8,9.85,9.85,0,0,0,6.37,15a9.79,9.79,0,0,1-4.45-1.21v.1a9.9,9.9,0,0,0,7.89,9.68,9.75,9.75,0,0,1-2.58.33,8.76,8.76,0,0,1-1.86-.17,9.92,9.92,0,0,0,9.2,6.86,19.8,19.8,0,0,1-12.21,4.2A20.24,20.24,0,0,1,0,34.62,27.74,27.74,0,0,0,15.11,39c18.12,0,28-15,28-28,0-.44,0-.86,0-1.28A19.65,19.65,0,0,0,48,4.62Z"/></g></g></svg>