<svg xmlns="http://www.w3.org/2000/svg" xmlns:xlink="http://www.w3.org/1999/xlink" viewBox="0 0 51.39 11.61"><defs><style>.cls-1{fill:none;}.cls-2{clip-path:url(#clip-path);}.cls-3{fill:#5e2e27;}.cls-3,.cls-4,.cls-5,.cls-6,.cls-7{fill-rule:evenodd;}.cls-4{fill:#c7cd1d;}.cls-5{fill:#e52330;}.cls-6{fill:#fbbc43;}.cls-7{fill:#61bfe6;}</style><clipPath id="clip-path" transform="translate(0 0)"><rect class="cls-1" width="51.39" height="15"/></clipPath></defs><g id="Layer_2" data-name="Layer 2"><g id="Layer_7" data-name="Layer 7"><g class="cls-2"><path class="cls-3" d="M6,1.61l-1,.87a1.71,1.71,0,0,0-1.55-1c-1.13,0-1.81.43-1.81,1.7V4.94c0,.48.2,1.74,1.48,1.74a2.19,2.19,0,0,0,1.86-1L6,6.5A3.36,3.36,0,0,1,3.1,8.07,2.91,2.91,0,0,1,0,5.12c0-1.29,0-1,0-2.31A2.81,2.81,0,0,1,2.68.13,3.24,3.24,0,0,1,6,1.61" transform="translate(0 0)"/><path class="cls-3" d="M14.27.27h1.54s0,3.5,0,4.38.35,2.07,1.53,2.07S19,6.18,19,4.69V.31h1.55V8H19.2v-.7a3.77,3.77,0,0,1-2.27.79,2.75,2.75,0,0,1-2.66-2.79c0-1.62,0-5.06,0-5.06" transform="translate(0 0)"/><path class="cls-4" d="M43.23,8.12H41.68s0-3.51,0-4.39-.34-2.07-1.53-2.07-1.66.82-1.66,2.22v4.2H37V.35H38.3v.7s.42-.84,2.1-.78a2.72,2.72,0,0,1,2.83,2.79c0,1.61,0,5.06,0,5.06" transform="translate(0 0)"/><path class="cls-3" d="M9.39.11h.8A2.69,2.69,0,0,1,12.87,2.8V5.34A2.69,2.69,0,0,1,10.19,8h-.8A2.69,2.69,0,0,1,6.72,5.34V2.8A2.69,2.69,0,0,1,9.39.11m.12,1.36A1.52,1.52,0,0,0,8.16,3.12V5A1.52,1.52,0,0,0,9.51,6.68h.62A1.52,1.52,0,0,0,11.47,5V3.12a1.52,1.52,0,0,0-1.34-1.65Z" transform="translate(0 0)"/><path class="cls-5" d="M22,.31V11.13h1.68V7.53s.35.54,1.88.54a2.81,2.81,0,0,0,2.79-2.66V2.82A2.69,2.69,0,0,0,26,.2C24.28.11,23.75.57,23.52,1V.29Zm2.9,1.16h.76A1.53,1.53,0,0,1,27,3.12V5a1.53,1.53,0,0,1-1.35,1.65h-.76A1.52,1.52,0,0,1,23.58,5V3.12a1.52,1.52,0,0,1,1.35-1.65" transform="translate(0 0)"/><path class="cls-6" d="M29.91.83l.63,1a2.83,2.83,0,0,1,1.9-.41,1.47,1.47,0,0,1,1.48,1.65,3.09,3.09,0,0,0-1.77-.43,2.68,2.68,0,0,0-2.59,1.74c-.24,1-.22,3.21,1.7,3.58a2.93,2.93,0,0,0,2.81-.68v.72h1.31V2.56c0-2.75-3.81-3.21-5.47-1.73m2.33,3.11h.2a1.3,1.3,0,0,1,1.3,1.3v.27a1.3,1.3,0,0,1-1.3,1.3h-.2a1.31,1.31,0,0,1-1.31-1.3V5.24a1.31,1.31,0,0,1,1.31-1.3" transform="translate(0 0)"/><path class="cls-7" d="M49.39.81a1.73,1.73,0,0,1,2-.48l0,1.16a1.3,1.3,0,0,0-1.27.24A2.91,2.91,0,0,1,50.39,3a2.64,2.64,0,0,1-2.56,2.7c-.89,0-1.19.06-2,1.2-.13.24.1.14.1.14a6.42,6.42,0,0,1,3.17-.2,2.6,2.6,0,0,1,2.12,2.39c0,1.27-1.91,2.43-1.91,2.43l-.67-1.11c.64-.64,1.5-1.07.68-2s-2.81-.4-3.75-.19-1.15-.81-1.06-1.58a2.42,2.42,0,0,1,1.12-1.53A2.77,2.77,0,0,1,44.45,3,2.64,2.64,0,0,1,47,.24h.82a2.41,2.41,0,0,1,1.56.57m-2.08.67a1.46,1.46,0,0,0-1.53,1.37v.28A1.46,1.46,0,0,0,47.31,4.5h.23a1.45,1.45,0,0,0,1.52-1.37V2.85a1.45,1.45,0,0,0-1.52-1.37Z" transform="translate(0 0)"/></g></g></g></svg>