<svg xmlns="http://www.w3.org/2000/svg" viewBox="0 0 34.86 15"><defs><style>.cls-1{fill:#e0002b;}</style></defs><g id="Layer_2" data-name="Layer 2"><g id="Layer_7" data-name="Layer 7"><polygon class="cls-1" points="4.07 0 4.07 0 0 3.19 0 4.97 1.78 4.97 1.78 4.97 3.76 3.43 3.76 14.71 4.05 14.99 4.05 15 4.05 15 5.97 15 5.97 15 6.27 14.71 6.27 0.29 5.97 0 4.07 0"/><polygon class="cls-1" points="29.87 2.5 27.36 0 27.36 0 19.09 0 18.8 0.29 18.8 0.28 18.8 0.29 18.8 0.29 18.8 2.21 18.8 2.21 19.09 2.5 26.33 2.5 31.32 7.5 26.33 12.49 15.04 12.49 15.04 0.29 14.74 0 12.84 0 12.84 0 8.77 3.19 8.77 4.97 10.55 4.97 10.55 4.97 12.53 3.43 12.53 14.71 12.82 14.99 12.83 15 12.83 15 27.36 15 34.86 7.5 29.87 2.5"/></g></g></svg>