<svg xmlns="http://www.w3.org/2000/svg" viewBox="0 0 48.08 15"><defs><style>.cls-1{fill:#e30613;}.cls-2{fill:#fff;}</style></defs><g id="Layer_2" data-name="Layer 2"><g id="Layer_7" data-name="Layer 7"><path class="cls-1" d="M26.85,4.73c-2.06,0-3.29,1.27-3.29,2.84s1.23,2.84,3.29,2.84,3.3-1.27,3.3-2.84-1.24-2.84-3.3-2.84m0,5.08a2,2,0,0,1-1.74-2.24,2,2,0,0,1,1.74-2.23,2,2,0,0,1,1.74,2.23,2,2,0,0,1-1.74,2.24"/><polygon class="cls-1" points="30.43 5.57 32.6 5.57 32.6 10.18 34.23 10.18 34.23 5.57 36.06 5.57 36.06 4.94 30.43 4.94 30.43 5.57"/><polygon class="cls-1" points="36.66 5.57 38.49 5.57 38.49 10.18 40.12 10.18 40.12 5.57 42.29 5.57 42.29 4.94 36.66 4.94 36.66 5.57"/><path class="cls-1" d="M20.3,9.24V4.94H18.73V9.56a.63.63,0,0,0,.63.62h4V9.55H20.62a.31.31,0,0,1-.32-.31"/><path class="cls-1" d="M45.06,5.56h3V4.94H43.81a.62.62,0,0,0-.63.62v4a.63.63,0,0,0,.63.62h4.27V9.56h-3a.31.31,0,0,1-.31-.31V7.7H48V7.09H44.75V5.87a.31.31,0,0,1,.31-.31"/><rect class="cls-1" x="0.91" y="0.91" width="13.17" height="13.17" rx="4.37" transform="translate(-3.11 7.5) rotate(-45)"/><path class="cls-2" d="M5.64,12.11a.46.46,0,0,1-.46-.45.41.41,0,0,1,.12-.33.48.48,0,0,1,.32-.15.47.47,0,0,1,0,.93h0"/><path class="cls-2" d="M7.33,3.54a.84.84,0,0,0-.63.25,2.92,2.92,0,0,0-.52,2.05c0,1.2.3,3.55,1.25,4.76a2.12,2.12,0,0,0,.48.47,1.12,1.12,0,0,0,.65.21,1.1,1.1,0,0,0,.25,0,3.39,3.39,0,0,0,1.72-1.53.43.43,0,0,1,.35-.2.41.41,0,0,1,.22.07.4.4,0,0,1,.13.57A4.07,4.07,0,0,1,9,12.07H9a3.13,3.13,0,0,1-.42,0,1.91,1.91,0,0,1-1.1-.36,3,3,0,0,1-.68-.65C5.44,9.41,5.35,6.22,5.35,5.86A3.71,3.71,0,0,1,6.12,3.2a1.65,1.65,0,0,1,1.2-.49H7.4a1.66,1.66,0,0,1,1.21.49,3.75,3.75,0,0,1,.77,2.66A8.64,8.64,0,0,1,8.29,10a.45.45,0,0,1-.36.2.43.43,0,0,1-.22-.06.42.42,0,0,1-.14-.57,7.31,7.31,0,0,0,1-3.73,2.87,2.87,0,0,0-.53-2,.81.81,0,0,0-.62-.25Z"/></g></g></svg>