<svg xmlns="http://www.w3.org/2000/svg" viewBox="0 0 91.59 15"><defs><style>.cls-1{fill:#231916;}</style></defs><g id="Layer_2" data-name="Layer 2"><g id="Layer_7" data-name="Layer 7"><path class="cls-1" d="M45.38,13.09a1.8,1.8,0,1,1-1.8-1.79,1.8,1.8,0,0,1,1.8,1.79"/><path class="cls-1" d="M0,12.64l1.89-2.26a6.62,6.62,0,0,0,4.33,1.76c1.3,0,2.09-.52,2.09-1.37v0c0-.81-.5-1.22-2.92-1.84C2.47,8.14.58,7.33.58,4.45v0C.58,1.78,2.69,0,5.66,0A8.33,8.33,0,0,1,11,1.89L9.39,4.29A6.83,6.83,0,0,0,5.61,2.86c-1.22,0-1.86.56-1.86,1.26v0c0,1,.62,1.27,3.13,1.91,2.94.77,4.6,1.82,4.6,4.35v0c0,2.88-2.2,4.5-5.33,4.5A9.25,9.25,0,0,1,0,12.64"/><path class="cls-1" d="M12.74,12.64l1.89-2.26A6.62,6.62,0,0,0,19,12.14c1.3,0,2.09-.52,2.09-1.37v0c0-.81-.5-1.22-2.92-1.84-2.92-.75-4.81-1.56-4.81-4.44v0C13.32,1.78,15.44,0,18.4,0a8.33,8.33,0,0,1,5.38,1.85l-1.65,2.4a6.83,6.83,0,0,0-3.77-1.43c-1.23,0-1.87.56-1.87,1.26v0c0,1,.62,1.27,3.13,1.91,2.94.77,4.6,1.82,4.6,4.35v0c0,2.88-2.2,4.5-5.32,4.5a9.26,9.26,0,0,1-6.16-2.32"/><path class="cls-1" d="M25.52,7.54v0A7.45,7.45,0,0,1,33.13,0a7.92,7.92,0,0,1,5.69,2l-2,2.42A5.34,5.34,0,0,0,33,2.94a4.35,4.35,0,0,0-4.16,4.52v0a4.34,4.34,0,0,0,4.39,4.6,5.06,5.06,0,0,0,3-.87V9.16H33V6.4h6.3v6.3A9.42,9.42,0,0,1,33.15,15a7.26,7.26,0,0,1-7.63-7.46"/><path class="cls-1" d="M46.23,7.54v0A7.38,7.38,0,0,1,53.8,0a7.45,7.45,0,0,1,5.71,2.24l-2,2.34a5.34,5.34,0,0,0-3.7-1.64,4.3,4.3,0,0,0-4.21,4.52v0a4.31,4.31,0,0,0,4.21,4.56,5.23,5.23,0,0,0,3.81-1.7l2,2.05A7.4,7.4,0,0,1,53.67,15a7.32,7.32,0,0,1-7.44-7.46"/><path class="cls-1" d="M60.18,7.54v0a7.71,7.71,0,0,1,15.41,0v0a7.71,7.71,0,0,1-15.41,0m12.08,0v0a4.41,4.41,0,0,0-4.4-4.56,4.34,4.34,0,0,0-4.35,4.52v0a4.41,4.41,0,0,0,4.39,4.56,4.34,4.34,0,0,0,4.36-4.52"/><polygon class="cls-1" points="77.08 0.25 80.52 0.25 84.33 6.38 88.15 0.25 91.58 0.25 91.58 14.75 88.42 14.75 88.42 5.28 84.33 11.48 84.25 11.48 80.21 5.34 80.21 14.75 77.08 14.75 77.08 0.25"/></g></g></svg>