<svg xmlns="http://www.w3.org/2000/svg" width="46.116" height="46" viewBox="0 0 46.116 46">
  <g id="그룹_874" data-name="그룹 874" transform="translate(-2835.785 -6287.489)">
    <g id="그룹_873" data-name="그룹 873">
      <g id="그룹_872" data-name="그룹 872">
        <path id="패스_2099" data-name="패스 2099" d="M2858.973,6306.187a1.794,1.794,0,0,0,.017-2.534,1.765,1.765,0,0,0-1.253-.515,1.816,1.816,0,0,0-1.282.531,1.781,1.781,0,1,0,2.518,2.518Z" fill="#ef840f"/>
        <path id="패스_2100" data-name="패스 2100" d="M2881.9,6304.5l-3.093-3.094-10.827-10.827-3.094-3.093-18.274,18.274.143,1.4-1.4-.143-9.568,9.568,17.13,16.9,9.452-9.452-.144-1.4,1.4.143Zm-32.917,5.862-1.94-1.94.97-.97,1.94,1.94Zm3.881,3.879-1.941-1.94.97-.969,1.941,1.939Zm2.62-11.544a3.151,3.151,0,1,1,2.2,5.39,3.131,3.131,0,0,1-2.221-.916A3.168,3.168,0,0,1,2855.485,6302.7Zm1.259,15.424-1.939-1.94.97-.97,1.939,1.94Zm3.881,3.88-1.941-1.939.97-.97,1.941,1.94Zm7.1-19.442a3.276,3.276,0,0,1,4.631,4.631,3.113,3.113,0,0,1-2.214.908,3.346,3.346,0,0,1-3.326-3.261A3.1,3.1,0,0,1,2867.722,6302.562Zm-4.715-6.753a.676.676,0,0,1,.752.612l1.8,17.638a.685.685,0,0,1-.612.752.577.577,0,0,1-.071,0,.686.686,0,0,1-.681-.616l-1.8-17.639A.684.684,0,0,1,2863.007,6295.809Z" fill="#ef840f"/>
        <path id="패스_2101" data-name="패스 2101" d="M2871.383,6306.223a1.857,1.857,0,0,0-.071-2.622,1.948,1.948,0,0,0-1.374-.577,1.732,1.732,0,0,0-1.753,1.789,1.939,1.939,0,0,0,.578,1.339A1.859,1.859,0,0,0,2871.383,6306.223Z" fill="#ef840f"/>
      </g>
    </g>
  </g>
</svg>
