<svg xmlns="http://www.w3.org/2000/svg" viewBox="0 0 24.06 24"><defs><style>.cls-1{fill:#ef840f;}</style></defs><g id="Layer_2" data-name="Layer 2"><g id="Layer_7" data-name="Layer 7"><path class="cls-1" d="M12.1,9.76a.94.94,0,0,0,0-1.33.93.93,0,0,0-.66-.27,1,1,0,0,0-.67.28A.93.93,0,0,0,12.1,9.76Z"/><path class="cls-1" d="M24.06,8.88,22.45,7.26,16.8,1.61,15.18,0,5.65,9.53l.07.74L5,10.19l-5,5L8.94,24l4.93-4.93-.08-.73.74.07ZM6.89,11.94l-1-1,.51-.5,1,1Zm2,2-1-1,.5-.51,1,1Zm1.37-6a1.64,1.64,0,1,1,2.32,2.32,1.64,1.64,0,0,1-2.33,0A1.64,1.64,0,0,1,10.28,7.94Zm.66,8-1-1,.51-.5,1,1Zm2,2-1-1,.5-.51,1,1Zm3.7-10.15A1.7,1.7,0,0,1,19,7.9a1.68,1.68,0,0,1,0,2.38,1.61,1.61,0,0,1-1.16.47,1.74,1.74,0,0,1-1.73-1.7A1.64,1.64,0,0,1,16.66,7.86ZM14.2,4.34a.35.35,0,0,1,.39.32l.94,9.2a.35.35,0,0,1-.32.39h0a.37.37,0,0,1-.36-.32l-.94-9.21A.36.36,0,0,1,14.2,4.34Z"/><path class="cls-1" d="M18.57,9.77a1,1,0,0,0,0-1.36,1,1,0,0,0-.72-.3.9.9,0,0,0-.65.26A.92.92,0,0,0,16.9,9a1,1,0,0,0,.31.7A1,1,0,0,0,18.57,9.77Z"/></g></g></svg>